<svg width="347" height="158" viewBox="0 0 347 158" fill="none" xmlns="http://www.w3.org/2000/svg">
<rect x="54.3262" y="61.9921" width="2.00116" height="15.0087" transform="rotate(3.12118 54.3262 61.9921)" fill="#D7D7D4"/>
<rect x="57.735" y="13.0076" width="2.00116" height="9.64835" transform="rotate(3.12118 57.735 13.0076)" fill="#D7D7D4"/>
<rect x="274.044" y="19.8973" width="2.00116" height="9.64835" transform="rotate(-70.5406 274.044 19.8973)" fill="#D7D7D4"/>
<rect x="190.939" y="15.9692" width="2.00116" height="9.64835" transform="rotate(7.74968 190.939 15.9692)" fill="#D7D7D4"/>
<rect x="188.995" y="90.4461" width="2.00116" height="6.95849" transform="rotate(-11.3555 188.995 90.4461)" fill="#D7D7D4"/>
<rect x="330.077" y="33.9934" width="2.00116" height="9.64835" transform="rotate(-80.7054 330.077 33.9934)" fill="#D7D7D4"/>
<rect x="286.016" y="24.2524" width="2.00116" height="4.85159" transform="rotate(-74.6642 286.016 24.2524)" fill="#D7D7D4"/>
<rect x="341.017" y="35.806" width="2.00116" height="4.85159" transform="rotate(-82.3093 341.017 35.806)" fill="#D7D7D4"/>
<rect x="93.3689" y="2.00116" width="2.00116" height="15.0087" transform="rotate(49.6399 93.3689 2.00116)" fill="#D7D7D4"/>
<rect x="115.042" y="98.139" width="2.00116" height="15.0087" transform="rotate(101.858 115.042 98.139)" fill="#D7D7D4"/>
<rect width="12.9257" height="12.4056" transform="matrix(-0.0344877 -0.999987 -0.999987 0.0344877 94.7833 66.0472)" fill="#D7D7D4"/>
<rect width="12.9257" height="12.4056" transform="matrix(-0.0344877 -0.999987 -0.999987 0.0344877 70.7696 135.087)" fill="#D7D7D4"/>
<rect width="12.9257" height="12.4056" transform="matrix(-0.0344877 -0.999987 -0.999987 0.0344877 242.87 153.098)" fill="#D7D7D4"/>
<rect width="12.9257" height="12.4056" transform="matrix(-0.0344877 -0.999987 -0.999987 0.0344877 298.902 108.072)" fill="#D7D7D4"/>
<rect width="17.4985" height="12.1693" transform="matrix(-0.0344877 -0.999987 -0.999987 0.0344877 107.712 70.5293)" fill="#D7D7D4"/>
<rect width="10.6693" height="12.1693" transform="matrix(-0.0344877 -0.999987 -0.999987 0.0344877 267.57 47.6908)" fill="#D7D7D4"/>
<rect width="10.6693" height="12.1693" transform="matrix(0.226874 -0.974521 -0.974521 -0.226874 16.7588 35.0604)" fill="#D7D7D4"/>
<rect width="6.51186" height="8.75108" transform="matrix(-0.0344877 -0.999987 -0.999987 0.0344877 278.017 43.6513)" fill="#D7D7D4"/>
<rect width="6.51186" height="8.75108" transform="matrix(0.968988 0.249449 0.249449 -0.968988 0 128.925)" fill="#D7D7D4"/>
<rect width="17.4985" height="12.1693" transform="matrix(-0.0344877 -0.999987 -0.999987 0.0344877 83.6988 139.569)" fill="#D7D7D4"/>
<rect width="17.4985" height="12.1693" transform="matrix(-0.0344877 -0.999987 -0.999987 0.0344877 255.799 157.58)" fill="#D7D7D4"/>
<rect width="17.4985" height="12.1693" transform="matrix(-0.0344877 -0.999987 -0.999987 0.0344877 311.831 112.554)" fill="#D7D7D4"/>
<rect width="8.22048" height="12.1693" transform="matrix(-0.459116 -0.889031 -0.889031 0.459116 211.171 33.583)" fill="#D7D7D4"/>
<rect width="5.49944" height="6.01817" transform="matrix(-0.0344877 -0.999987 -0.999987 0.0344877 334.283 7.71249)" fill="#D7D7D4"/>
<rect width="5.49944" height="6.01817" transform="matrix(-0.0344877 -0.999987 -0.999987 0.0344877 341.287 5.49929)" fill="#D7D7D4"/>
<rect width="5.73864" height="8.61726" transform="matrix(-0.459116 -0.889031 -0.889031 0.459116 207.962 42.3205)" fill="#D7D7D4"/>
<rect width="5.73864" height="8.61726" transform="matrix(-0.0344877 -0.999987 -0.999987 0.0344877 346.896 66.7741)" fill="#D7D7D4"/>
<rect width="7.9168" height="12.1693" transform="matrix(-0.0859556 -0.996883 -0.996883 0.0859556 173.475 79.3117)" fill="#D7D7D4"/>
</svg>
