<svg width="16" height="16" viewBox="0 0 16 16" fill="none" xmlns="http://www.w3.org/2000/svg">
<path d="M10.8334 15.0003C11.4777 15.0003 12.0001 14.478 12.0001 13.8337C12.0001 13.1893 11.4777 12.667 10.8334 12.667C10.1891 12.667 9.66675 13.1893 9.66675 13.8337C9.66675 14.478 10.1891 15.0003 10.8334 15.0003Z" fill="#CED55B"/>
<path d="M5.49992 15.0003C6.14425 15.0003 6.66658 14.478 6.66658 13.8337C6.66658 13.1893 6.14425 12.667 5.49992 12.667C4.85559 12.667 4.33325 13.1893 4.33325 13.8337C4.33325 14.478 4.85559 15.0003 5.49992 15.0003Z" fill="#CED55B"/>
<path d="M3.22659 2.62634L3.09325 4.25967C3.06659 4.57301 3.31325 4.83301 3.62659 4.83301H13.8333C14.1133 4.83301 14.3466 4.61967 14.3666 4.33967C14.4533 3.15967 13.5533 2.19967 12.3733 2.19967H4.17992C4.11325 1.90634 3.97992 1.62634 3.77325 1.39301C3.43992 1.03967 2.97325 0.833008 2.49325 0.833008H1.33325C1.05992 0.833008 0.833252 1.05967 0.833252 1.33301C0.833252 1.60634 1.05992 1.83301 1.33325 1.83301H2.49325C2.69992 1.83301 2.89325 1.91967 3.03325 2.06634C3.17325 2.21967 3.23992 2.41967 3.22659 2.62634Z" fill="#CED55B"/>
<path d="M13.6735 5.83301H3.44678C3.16678 5.83301 2.94012 6.04634 2.91345 6.31967L2.67345 9.21967C2.58012 10.3597 3.47345 11.333 4.61345 11.333H12.0268C13.0268 11.333 13.9068 10.513 13.9801 9.51301L14.2001 6.39967C14.2268 6.09301 13.9868 5.83301 13.6735 5.83301Z" fill="#CED55B"/>
</svg>
