<svg width="17" height="16" viewBox="0 0 17 16" fill="none" xmlns="http://www.w3.org/2000/svg">
<path fill-rule="evenodd" clip-rule="evenodd" d="M8.21346 2.69275C9.30499 2.00741 10.755 1.81808 12.0076 2.21675C14.7324 3.08941 15.5783 6.03941 14.8217 8.38674C13.6543 12.0734 8.6686 14.8234 8.45714 14.9387C8.38196 14.9801 8.29872 15.0007 8.21548 15.0007C8.13223 15.0007 8.04966 14.9807 7.97448 14.9401C7.76436 14.8261 2.8149 12.1167 1.60858 8.38741C1.60791 8.38741 1.60791 8.38674 1.60791 8.38674C0.850684 6.03874 1.69383 3.08808 4.41594 2.21675C5.69409 1.80608 7.08703 1.98675 8.21346 2.69275ZM4.72473 3.16875C2.52221 3.87408 1.96906 6.22675 2.56719 8.08208C3.50835 10.9901 7.22666 13.3414 8.2148 13.9234C9.20631 13.3354 12.9515 10.9581 13.8624 8.08474C14.4605 6.22741 13.9054 3.87475 11.6995 3.16875C10.6308 2.82808 9.3842 3.03541 8.5236 3.69675C8.34369 3.83408 8.09397 3.83675 7.91272 3.70075C7.0011 3.02008 5.81022 2.82075 4.72473 3.16875ZM11.0551 4.49268C11.97 4.78668 12.6111 5.59135 12.6897 6.54268C12.7118 6.81801 12.5057 7.05935 12.2285 7.08135C12.2144 7.08268 12.201 7.08334 12.1869 7.08334C11.9271 7.08334 11.7069 6.88535 11.6854 6.62401C11.6411 6.07601 11.2719 5.61335 10.7463 5.44468C10.4811 5.35935 10.3361 5.07735 10.4214 4.81535C10.508 4.55268 10.7892 4.41001 11.0551 4.49268Z" fill="#040B14"/>
</svg>
