<svg width="32" height="32" viewBox="0 0 32 32" fill="none" xmlns="http://www.w3.org/2000/svg">
<rect width="32" height="32" rx="16" fill="#CED55B"/>
<path fill-rule="evenodd" clip-rule="evenodd" d="M16.1563 10.6927C17.2403 10.0074 18.6803 9.81808 19.9243 10.2167C22.6303 11.0894 23.4703 14.0394 22.719 16.3867C21.5596 20.0734 16.6083 22.8234 16.3983 22.9387C16.3236 22.9801 16.241 23.0007 16.1583 23.0007C16.0756 23.0007 15.9936 22.9807 15.919 22.9401C15.7103 22.8261 10.795 20.1167 9.59698 16.3874C9.59631 16.3874 9.59631 16.3867 9.59631 16.3867C8.84431 14.0387 9.68165 11.0881 12.385 10.2167C13.6543 9.80608 15.0376 9.98675 16.1563 10.6927ZM12.6916 11.1687C10.5043 11.8741 9.95498 14.2267 10.549 16.0821C11.4836 18.9901 15.1763 21.3414 16.1576 21.9234C17.1423 21.3354 20.8616 18.9581 21.7663 16.0847C22.3603 14.2274 21.809 11.8747 19.6183 11.1687C18.557 10.8281 17.319 11.0354 16.4643 11.6967C16.2856 11.8341 16.0376 11.8367 15.8576 11.7007C14.9523 11.0201 13.7696 10.8207 12.6916 11.1687ZM18.9783 12.4927C19.887 12.7867 20.5236 13.5913 20.6016 14.5427C20.6236 14.818 20.419 15.0593 20.1436 15.0813C20.1296 15.0827 20.1163 15.0833 20.1023 15.0833C19.8443 15.0833 19.6256 14.8853 19.6043 14.624C19.5603 14.076 19.1936 13.6133 18.6716 13.4447C18.4083 13.3593 18.2643 13.0773 18.349 12.8153C18.435 12.5527 18.7143 12.41 18.9783 12.4927Z" fill="#040B14"/>
<g filter="url(#filter0_b_304_9535)">
<rect width="32" height="32" rx="16" fill="white"/>
</g>
<path d="M13.5197 9.6671C13.9397 9.67987 14.3464 9.7532 14.7404 9.8872H14.7797C14.8064 9.89987 14.8264 9.91387 14.8397 9.92654C14.987 9.97387 15.1264 10.0272 15.2597 10.1005L15.513 10.2139C15.613 10.2672 15.733 10.3665 15.7997 10.4072C15.8664 10.4465 15.9397 10.4872 15.9997 10.5332C16.7404 9.9672 17.6397 9.66054 18.5664 9.6671C18.987 9.6671 19.407 9.72654 19.8064 9.86054C22.267 10.6605 23.1537 13.3605 22.413 15.7205C21.993 16.9265 21.3064 18.0272 20.407 18.9265C19.1197 20.1732 17.707 21.2799 16.1864 22.2332L16.0197 22.3339L15.8464 22.2265C14.3204 21.2799 12.8997 20.1732 11.6004 18.9199C10.707 18.0205 10.0197 16.9265 9.59302 15.7205C8.83969 13.3605 9.72635 10.6605 12.2137 9.84654C12.407 9.77987 12.6064 9.7332 12.8064 9.7072H12.8864C13.0737 9.67987 13.2597 9.6671 13.4464 9.6671H13.5197ZM19.4597 11.7739C19.1864 11.6799 18.8864 11.8272 18.7864 12.1072C18.693 12.3872 18.8397 12.6939 19.1197 12.7932C19.547 12.9532 19.833 13.3739 19.833 13.8399V13.8605C19.8204 14.0132 19.8664 14.1605 19.9597 14.2739C20.053 14.3872 20.193 14.4532 20.3397 14.4672C20.613 14.4599 20.8464 14.2405 20.8664 13.9599V13.8805C20.8864 12.9465 20.3204 12.1005 19.4597 11.7739Z" fill="#CED55B"/>
<defs>
<filter id="filter0_b_304_9535" x="-10" y="-10" width="52" height="52" filterUnits="userSpaceOnUse" color-interpolation-filters="sRGB">
<feFlood flood-opacity="0" result="BackgroundImageFix"/>
<feGaussianBlur in="BackgroundImageFix" stdDeviation="5"/>
<feComposite in2="SourceAlpha" operator="in" result="effect1_backgroundBlur_304_9535"/>
<feBlend mode="normal" in="SourceGraphic" in2="effect1_backgroundBlur_304_9535" result="shape"/>
</filter>
</defs>
</svg>
