<svg width="32" height="32" viewBox="0 0 32 32" fill="none" xmlns="http://www.w3.org/2000/svg">
<path d="M27.4933 11.2663C26.0933 5.10634 20.72 2.33301 16 2.33301C16 2.33301 16 2.33301 15.9867 2.33301C11.28 2.33301 5.89334 5.09301 4.49334 11.253C2.93334 18.133 7.14667 23.9597 10.96 27.6263C12.3733 28.9863 14.1867 29.6663 16 29.6663C17.8133 29.6663 19.6267 28.9863 21.0267 27.6263C24.84 23.9597 29.0533 18.1463 27.4933 11.2663ZM16 17.9463C13.68 17.9463 11.8 16.0663 11.8 13.7463C11.8 11.4263 13.68 9.54634 16 9.54634C18.32 9.54634 20.2 11.4263 20.2 13.7463C20.2 16.0663 18.32 17.9463 16 17.9463Z" fill="#040B14"/>
</svg>
